<?xml version="1.0" encoding="UTF-8"?>
<svg version="1.1" xmlns="http://www.w3.org/2000/svg" width="2000" height="728">
<path d="M0 0 C646.8 0 1293.6 0 1960 0 C1960 236.28 1960 472.56 1960 716 C1313.2 716 666.4 716 0 716 C0 479.72 0 243.44 0 0 Z M16 16 C16 241.72 16 467.44 16 700 C652.24 700 1288.48 700 1944 700 C1944 474.28 1944 248.56 1944 16 C1307.76 16 671.52 16 16 16 Z " fill="#FFFFFF" transform="translate(20,6)"/>
<path d="M0 0 C2.53656273 2.17419663 3.44769149 3.22658332 4.625 6.25 C4.77734375 8.43359375 4.77734375 8.43359375 4.5625 10.6875 C4.50964844 11.42871094 4.45679688 12.16992188 4.40234375 12.93359375 C3.26734032 16.31578991 1.28117233 17.89976587 -1.375 20.25 C-4.24487305 21.65966797 -4.24487305 21.65966797 -7.69921875 22.8671875 C-8.70356209 23.22488724 -8.70356209 23.22488724 -9.72819519 23.58981323 C-11.321609 24.15415332 -12.91765177 24.71109891 -14.51556396 25.26257324 C-17.81685887 26.40258368 -21.11074754 27.56282094 -24.40478516 28.72363281 C-31.94264237 31.37592384 -39.48911991 34.00320331 -47.03686523 36.62719727 C-52.71430587 38.60131472 -58.39068554 40.57847897 -64.06690025 42.55611801 C-66.02226502 43.23700113 -67.97799889 43.91681481 -69.93379211 44.59646606 C-76.40680202 46.84968515 -82.85918384 49.1411465 -89.27592468 51.55050659 C-91.375 52.25 -91.375 52.25 -93.375 52.25 C-93.52195312 53.00023437 -93.66890625 53.75046875 -93.8203125 54.5234375 C-96.30128319 65.84464859 -101.1724063 74.96531431 -110.375 82.25 C-119.66132284 87.86082554 -129.78044431 87.39649674 -140.30175781 87.3918457 C-142.26529095 87.39717919 -144.22882409 87.40251864 -146.19235659 87.40808237 C-148.28994321 87.41325701 -150.38752363 87.41618566 -152.48511505 87.41866493 C-156.87453575 87.42461614 -161.26387712 87.44119511 -165.65325928 87.46000671 C-167.16121288 87.46634296 -168.66916652 87.47266859 -170.17712021 87.47898388 C-170.93197944 87.48214969 -171.68683867 87.4853155 -172.46457243 87.48857725 C-182.67151749 87.53051117 -192.87842368 87.56361543 -203.08544922 87.57592773 C-209.98703825 87.58433791 -216.88842826 87.60693324 -223.78991771 87.6452834 C-227.43325982 87.66493727 -231.07630521 87.67748433 -234.71970367 87.67244911 C-238.79029822 87.6668912 -242.8601593 87.69233646 -246.93066406 87.7199707 C-248.71256889 87.71006859 -248.71256889 87.71006859 -250.5304718 87.69996643 C-261.51876213 87.82184906 -270.64389121 90.44033897 -279.53515625 96.98046875 C-281.375 98.25 -281.375 98.25 -284.375 99.25 C-285.43306603 101.08922866 -285.43306603 101.08922866 -286.375 103.25 C-287.33992021 104.65571941 -288.32004024 106.05108675 -289.3125 107.4375 C-295.62217844 116.79429144 -297.83343686 128.11063547 -295.84375 139.21484375 C-292.94051586 151.72715175 -287.60519435 161.6082838 -276.4375 168.625 C-266.83018016 173.95256138 -257.53448209 175.3951075 -246.67626953 175.40771484 C-245.23584038 175.41533592 -245.23584038 175.41533592 -243.76631165 175.42311096 C-241.68584215 175.43378706 -239.60536137 175.44241799 -237.52487564 175.44923019 C-234.21825561 175.46107925 -230.91176268 175.48055095 -227.60519409 175.50234985 C-218.20493893 175.56373875 -208.8046959 175.61781112 -199.40429688 175.65136719 C-193.64600563 175.67247039 -187.88794546 175.70790216 -182.12978745 175.75212479 C-179.9492454 175.76616728 -177.76866246 175.77498026 -175.58807755 175.77817917 C-148.75957324 175.82167628 -126.17617965 180.11276423 -106.0625 199 C-89.85115549 216.02717516 -85.69249521 236.39492421 -86.06640625 259.02734375 C-86.79768334 279.12380929 -95.69149537 296.30725934 -110.25 310 C-126.52571257 324.11390036 -146.03846929 329.43264418 -167.2076416 329.37025452 C-168.81048012 329.37153615 -168.81048012 329.37153615 -170.44569921 329.37284368 C-174.01394693 329.37448629 -177.58214727 329.36899709 -181.15039062 329.36352539 C-183.71311441 329.36324323 -186.27583827 329.36340182 -188.83856201 329.3639679 C-194.3496409 329.36419536 -199.86070463 329.36136522 -205.3717804 329.35573006 C-213.33977645 329.34758797 -221.30776679 329.34499706 -229.27576655 329.34374207 C-242.20468095 329.3415558 -255.13358903 329.33490725 -268.0625 329.32543945 C-280.61848926 329.31625433 -293.1744768 329.30917888 -305.73046875 329.30493164 C-306.50498581 329.30466892 -307.27950287 329.30440619 -308.07749015 329.30413551 C-311.96318359 329.30283043 -315.84887704 329.30156673 -319.7345705 329.30032361 C-351.9480516 329.28996424 -384.16152492 329.2723575 -416.375 329.25 C-416.36983368 330.26003082 -416.36466736 331.27006165 -416.35934448 332.31069946 C-416.35516462 333.65976932 -416.35111259 335.00883959 -416.34716797 336.35791016 C-416.34200165 337.67731598 -416.33683533 338.9967218 -416.33151245 340.35610962 C-416.39260562 345.82641373 -416.85859389 351.19563282 -417.5 356.625 C-417.69468872 358.27495972 -417.69468872 358.27495972 -417.89331055 359.95825195 C-421.43078169 387.60249641 -429.02663472 418.16802894 -451.3671875 436.78515625 C-461.71001378 444.33099255 -474.50670662 446.47345337 -487.0625 444.6875 C-492.98763509 443.39522276 -498.49221427 440.84965509 -503.375 437.25 C-504.08491272 435.93918111 -504.75880999 434.60739902 -505.375 433.25 C-504.94268066 432.84386475 -504.51036133 432.43772949 -504.06494141 432.01928711 C-475.37184448 404.83133935 -464.9591103 372.36990917 -463.375 333.25 C-463.19512216 325.59679485 -463.23103311 317.94021669 -463.2331543 310.28540039 C-463.23011676 308.00063002 -463.22659368 305.71586025 -463.22262573 303.43109131 C-463.21478617 298.54003395 -463.20961083 293.64898372 -463.20633507 288.75792122 C-463.20038913 281.02116322 -463.18381857 273.28445033 -463.16499329 265.54771423 C-463.15865764 262.89232352 -463.152332 260.23693278 -463.14601612 257.58154202 C-463.14364048 256.58667381 -463.14364048 256.58667381 -463.14121684 255.57170727 C-463.12334182 248.05098171 -463.10708165 240.53025323 -463.09204102 233.00952148 C-463.09066514 232.32328925 -463.08928927 231.63705701 -463.08787171 230.93002986 C-463.0658937 219.78486528 -463.05517046 208.63971211 -463.04767027 197.49452967 C-463.03959445 186.02207351 -463.01603432 174.5497372 -462.9797166 163.07733148 C-462.95996118 156.64751222 -462.94755027 150.21786311 -462.95255089 143.78801155 C-462.95719153 137.74921039 -462.94342352 131.71073296 -462.91553879 125.67199707 C-462.90862058 123.45808919 -462.90850718 121.24414789 -462.91573906 119.03024101 C-462.9246221 116.00533551 -462.90894247 112.98149906 -462.88725281 109.9566803 C-462.89991661 108.64709566 -462.89991661 108.64709566 -462.91283625 107.31105477 C-462.82012559 100.3064623 -461.01290975 94.88790975 -456 89.875 C-448.60062949 85.29443731 -439.81298878 85.18884605 -431.375 86.25 C-425.94564286 87.83130027 -422.43844028 89.97905918 -418.8125 94.3125 C-416.38923186 99.26439576 -416.23311656 103.55938363 -416.25474548 109.02008057 C-416.25389106 109.80754032 -416.25303663 110.59500007 -416.25215632 111.40632224 C-416.25050805 114.04727176 -416.25601223 116.68815789 -416.26147461 119.32910156 C-416.26175665 121.22129312 -416.26159842 123.11348478 -416.2610321 125.00567627 C-416.26074478 130.1457809 -416.26663106 135.28586228 -416.27360606 140.42596149 C-416.27985037 145.79648534 -416.28044425 151.1670097 -416.28163147 156.53753662 C-416.2847416 166.70887437 -416.29295072 176.88020139 -416.30298096 187.05153441 C-416.31415195 198.63060736 -416.31965504 210.20968081 -416.32467639 221.7887578 C-416.33513358 245.60917782 -416.35272689 269.42958831 -416.375 293.25 C-384.34850007 293.19083489 -352.3220805 293.11646809 -320.29566957 293.02101372 C-316.5107527 293.00974617 -312.72583546 292.99860762 -308.94091797 292.98754883 C-308.18744016 292.98534514 -307.43396234 292.98314146 -306.65765187 292.980871 C-294.47313372 292.94554245 -282.28861563 292.92065328 -270.10406533 292.89965298 C-257.59246923 292.87785547 -245.08093934 292.8447677 -232.5693996 292.80129844 C-224.85520364 292.77484961 -217.14109009 292.75710447 -209.42685106 292.75065396 C-203.50179323 292.74475385 -197.57685688 292.72311081 -191.65185738 292.69572449 C-189.22839978 292.68695561 -186.80491774 292.68321929 -184.38144493 292.68499184 C-162.427802 293.37784535 -162.427802 293.37784535 -143.60546875 283.6015625 C-134.38322182 274.08808671 -133.03079679 261.93127038 -133.16796875 249.19921875 C-133.72182689 238.63411339 -136.30708531 229.33898304 -143.375 221.25 C-151.99836629 214.151758 -161.58377498 212.94758507 -172.41430664 212.97875977 C-173.37503082 212.97353302 -174.335755 212.96830627 -175.32559204 212.96292114 C-177.39781641 212.95273535 -179.47006597 212.94691027 -181.54231453 212.94503975 C-184.83663231 212.94134857 -188.13065636 212.92454449 -191.4249115 212.90428162 C-200.78671772 212.84914958 -210.14856709 212.81831056 -219.51049805 212.79370117 C-225.25278026 212.77770331 -230.99485454 212.74735543 -236.73702812 212.70893669 C-238.90920214 212.697391 -241.08141354 212.69135727 -243.25361824 212.69125557 C-271.72839781 212.68943968 -297.78835624 206.88373253 -319.375 187.25 C-320.08011719 186.63769531 -320.78523437 186.02539062 -321.51171875 185.39453125 C-334.72601787 173.21868393 -342.88440351 155.15797026 -343.7109375 137.27734375 C-344.12754094 114.00641885 -338.24419022 94.70373382 -321.86669922 77.71826172 C-300.76776655 56.95083438 -272.88721321 49.93992227 -244.03930664 49.96289062 C-242.68062947 49.9568437 -241.32195599 49.94991387 -239.96328735 49.94218445 C-237.07262667 49.92746861 -234.18203295 49.91859079 -231.29133797 49.91447449 C-226.7133987 49.9076782 -222.13560153 49.88583448 -217.557724 49.86193848 C-207.02572053 49.8091771 -196.49367358 49.77544536 -185.96159363 49.74217987 C-176.27875913 49.7114249 -166.59598705 49.6765569 -156.9132337 49.62586927 C-152.3685305 49.60263452 -147.82392872 49.58880942 -143.27917206 49.58237457 C-140.45116034 49.57641353 -137.62323078 49.56229987 -134.79526138 49.54603004 C-132.87181141 49.53740913 -130.94832526 49.53857079 -129.02485657 49.54008484 C-122.78939039 49.49557057 -117.34078942 49.10366166 -111.375 47.25 C-111.42140625 46.58613281 -111.4678125 45.92226562 -111.515625 45.23828125 C-111.55171875 44.35527344 -111.5878125 43.47226563 -111.625 42.5625 C-111.67140625 41.69238281 -111.7178125 40.82226562 -111.765625 39.92578125 C-111.23374487 36.28240236 -109.92491751 34.89990926 -107.375 32.25 C-104.89762068 30.99504481 -102.63118207 30.01972033 -100.03515625 29.09765625 C-99.26446304 28.81108658 -98.49376984 28.52451691 -97.69972229 28.22926331 C-94.93274441 27.21259003 -92.15582842 26.22815512 -89.375 25.25 C-87.71969269 24.66687042 -87.71969269 24.66687042 -86.03094482 24.07196045 C-77.65256068 21.13374696 -69.25521066 18.25245773 -60.85266113 15.38427734 C-56.78944099 13.99656355 -52.72768447 12.60457201 -48.66611671 11.21203041 C-45.40840179 10.09514139 -42.15011782 8.98000385 -38.89022827 7.86947632 C-33.56351614 6.05076016 -28.24550543 4.22307807 -22.96923828 2.26220703 C-22.19145523 1.97547623 -21.41367218 1.68874542 -20.61231995 1.39332581 C-18.67233227 0.6719091 -16.73826129 -0.06536913 -14.80493164 -0.80444336 C-9.44130275 -2.28307776 -5.07607764 -2.63204026 0 0 Z " fill="#FFFFFF" transform="translate(617.375,186.75)"/>
<path d="M0 0 C2.23341198 0.00315111 4.46548162 -0.02037131 6.69873047 -0.0456543 C20.20137914 -0.10591287 33.50738075 1.58366754 46.31201172 6.06567383 C47.05781494 6.32243896 47.80361816 6.5792041 48.57202148 6.84375 C64.15579358 12.43279565 78.3439213 22.34848615 86.00679111 37.27817154 C90.21098707 46.90621792 89.55416592 56.8243631 89.5012207 67.11938477 C89.50500872 69.22159689 89.51051273 71.32380652 89.51759338 73.42601013 C89.53151242 79.11484505 89.52039833 84.80337623 89.50388217 90.49219418 C89.48997003 96.47252035 89.49649958 102.45282996 89.50001526 108.4331665 C89.50271503 118.4869878 89.48927038 128.54068958 89.46606445 138.59448242 C89.4395432 150.16352891 89.43768087 161.73237454 89.44945282 173.30144095 C89.46029913 184.4804282 89.45398454 195.65934388 89.43989754 206.8383255 C89.43418805 211.56976291 89.43418048 216.30114707 89.43896294 221.03258514 C89.44379705 226.63057893 89.43336985 232.22835802 89.41200829 237.82631111 C89.40652339 239.86137481 89.4058968 241.89645949 89.41096115 243.93152428 C89.48532319 278.15034896 84.82471631 319.15870142 60.18701172 345.12817383 C50.18166916 355.13351639 40.22943903 359.19027762 25.85107422 359.35083008 C15.73781876 358.81786932 7.9145044 355.51001592 -0.00048828 349.31567383 C1.3665386 346.14417147 2.7994651 344.44030067 5.49951172 342.31567383 C34.67230404 317.42367168 40.04395287 279.26921543 42.99951172 243.31567383 C42.25385956 243.32011505 41.5082074 243.32455627 40.73995972 243.32913208 C33.65115175 243.36950475 26.56238481 243.39980672 19.47349358 243.41929817 C15.83058572 243.42965635 12.18777427 243.44366635 8.54492188 243.46655273 C5.01763105 243.48856989 1.49043188 243.50030201 -2.03692245 243.50542831 C-4.01179787 243.51082509 -5.98663733 243.52638948 -7.9614563 243.54226685 C-33.04614745 243.5453222 -57.35822919 236.62634298 -76.00048828 219.31567383 C-76.85126953 218.54481445 -77.70205078 217.77395508 -78.57861328 216.97973633 C-103.41451208 193.43896109 -111.74361754 159.61171269 -112.86010742 126.50244141 C-113.69175925 92.43078686 -106.44066258 57.34640045 -82.43798828 31.72192383 C-69.47077439 18.92095627 -54.00168035 9.90045383 -36.62548828 4.62817383 C-35.96645508 4.42554932 -35.30742188 4.2229248 -34.62841797 4.01416016 C-23.21794461 0.71887044 -11.79975588 -0.03462219 0 0 Z M-22.00048828 39.31567383 C-22.88478516 39.58250977 -23.76908203 39.8493457 -24.68017578 40.12426758 C-39.65775811 45.37342026 -50.52665374 57.09945627 -57.32006836 71.07495117 C-64.45242022 86.62685987 -66.39189426 103.60203263 -66.31298828 120.56567383 C-66.30807373 121.82911621 -66.30315918 123.09255859 -66.2980957 124.39428711 C-65.99529825 148.68951256 -60.3487425 172.31173756 -43.00048828 190.31567383 C-27.3957855 203.88598573 -8.95644698 207.5330935 11.16357422 207.41333008 C12.08165863 207.41191513 12.99974304 207.41050018 13.94564819 207.40904236 C16.8386378 207.40350602 19.73154605 207.39096602 22.62451172 207.37817383 C24.60237517 207.37315058 26.58023986 207.36858913 28.55810547 207.36450195 C33.37193824 207.35355756 38.18571125 207.33633801 42.99951172 207.31567383 C43.11639495 187.24441607 43.20452434 167.17322753 43.25857258 147.10169983 C43.28433694 137.78179537 43.31945358 128.46210257 43.37670898 119.14233398 C43.42659818 111.0177178 43.45881559 102.89325494 43.46995419 94.76848984 C43.47646365 90.46776089 43.49172549 86.1674705 43.528162 81.86688232 C43.56220894 77.81534525 43.57254734 73.76442557 43.56505013 69.71275902 C43.56642081 68.22930733 43.57630196 66.74583407 43.59553909 65.26250648 C43.74655516 53.81724492 43.74655516 53.81724492 37.99951172 44.31567383 C35.35779927 42.2137482 35.35779927 42.2137482 32.37451172 40.94067383 C31.43349609 40.47918945 30.49248047 40.01770508 29.52294922 39.54223633 C21.08230387 36.60391855 12.57015323 35.95192638 3.68701172 36.00317383 C2.68516846 36.00736328 1.6833252 36.01155273 0.65112305 36.01586914 C-7.24615703 36.13563107 -14.41696021 36.97994718 -22.00048828 39.31567383 Z " fill="#FFFFFF" transform="translate(953.00048828125,272.684326171875)"/>
<path d="M0 0 C6.16585699 3.81297479 9.64543741 9.61472383 13.1875 15.75 C13.69474609 16.59304687 14.20199219 17.43609375 14.72460938 18.3046875 C20.38894126 27.91421552 25.61399742 38.20466919 23.51396179 49.64862061 C21.38908463 57.83794008 18.91491634 65.8992448 16.33203125 73.953125 C15.88758959 75.3483464 15.44347847 76.74367314 14.99967957 78.13909912 C13.84398452 81.76991133 12.68387611 85.39929777 11.52276611 89.02838135 C10.33341319 92.7485203 9.14834554 96.47002373 7.96289062 100.19140625 C5.64606189 107.46226127 3.32455773 114.73161184 1 122 C1.82389977 122.608153 1.82389977 122.608153 2.66444397 123.22859192 C3.7452549 124.03159981 3.7452549 124.03159981 4.84790039 124.85083008 C5.5621669 125.38001541 6.27643341 125.90920074 7.01234436 126.454422 C9.42722692 128.33220671 11.42966939 130.38221301 13.4375 132.6875 C14.19289063 133.55117187 14.94828125 134.41484375 15.7265625 135.3046875 C17.9560741 137.94792291 20.13996318 140.62231903 22.3125 143.3125 C25.88167016 147.72036209 29.59990861 151.95175586 33.4375 156.125 C33.95803955 156.69387939 34.4785791 157.26275879 35.01489258 157.84887695 C37.69651142 160.81678463 37.69651142 160.81678463 41 163 C42.8718398 162.75954114 42.8718398 162.75954114 44.98388672 162.19555664 C45.80589569 161.99527359 46.62790466 161.79499054 47.474823 161.58863831 C48.36742828 161.36473923 49.26003357 161.14084015 50.1796875 160.91015625 C52.07803653 160.45080611 53.97647716 159.99183437 55.875 159.53320312 C58.86234671 158.80320688 61.84854037 158.0690756 64.83300781 157.32739258 C91.24248984 150.791156 91.24248984 150.791156 99.5 154.625 C104.23194216 159.12034505 106.44165512 163.1448865 107.1484375 169.62890625 C107.22113861 170.26808487 107.29383972 170.90726349 107.3687439 171.56581116 C107.6027325 173.70888986 107.80569277 175.8529695 108 178 C108.07077759 178.77543152 108.14155518 179.55086304 108.21447754 180.34979248 C108.73633917 186.20858064 109.18602201 192.07201876 109.625 197.9375 C109.76003234 199.69989928 109.89544682 201.46226932 110.03125 203.22460938 C110.35855745 207.48274993 110.68074558 211.74124841 111 216 C112.21816406 216.38285156 113.43632813 216.76570312 114.69140625 217.16015625 C120.91985833 219.23711905 126.90966346 221.84521796 132.9375 224.4375 C135.17537488 225.3954811 137.41365068 226.35252623 139.65234375 227.30859375 C140.72339355 227.7672583 141.79444336 228.22592285 142.89794922 228.69848633 C146.52996736 230.22235605 150.19415097 231.64850789 153.88110352 233.03369141 C158.36918483 235.08045092 161.84307603 238.13886144 164.4375 242.3125 C166.54325678 252.37333794 163.26299731 258.41692519 158 267 C157.50145508 267.81710449 157.00291016 268.63420898 156.48925781 269.47607422 C153.74454239 273.96140077 150.97589448 278.43087475 148.18359375 282.88671875 C147.66394043 283.7276709 147.14428711 284.56862305 146.60888672 285.43505859 C145.49806086 287.20597459 144.35691995 288.95810766 143.19189453 290.69384766 C142.6245459 291.56444824 142.05719727 292.43504883 141.47265625 293.33203125 C140.9506665 294.10909424 140.42867676 294.88615723 139.89086914 295.68676758 C138.74899591 297.98397406 138.74899591 297.98397406 139.61621094 300.39111328 C141.23456919 303.44223824 142.91093972 306.43610944 144.66796875 309.41015625 C145.0258699 310.01830673 145.38377106 310.62645721 145.7525177 311.2530365 C146.89424736 313.19147163 148.04073211 315.12704208 149.1875 317.0625 C149.93847779 318.3350937 150.68913158 319.60787865 151.43945312 320.88085938 C151.80832642 321.5062561 152.17719971 322.13165283 152.55725098 322.77600098 C153.29588949 324.02898323 154.03392978 325.28231834 154.7713623 326.53601074 C156.52531993 329.51509159 158.29081354 332.48538724 160.08984375 335.4375 C160.7240625 336.49066406 161.35828125 337.54382813 162.01171875 338.62890625 C162.57463623 339.55131104 163.13755371 340.47371582 163.7175293 341.42407227 C165.67811851 345.36204614 165.91714205 348.73698788 165 353 C162.99679647 358.78703241 159.17754431 362.31386078 153.86123657 365.13491821 C151.3711634 366.28452349 148.86168762 367.36612717 146.33203125 368.42578125 C145.41540207 368.81823532 144.49877289 369.21068939 143.55436707 369.61503601 C141.62759798 370.4374546 139.69870162 371.25490536 137.76782227 372.06762695 C134.80672957 373.31493068 131.85323293 374.57900855 128.90039062 375.84570312 C127.02385968 376.64422203 125.14692037 377.4417821 123.26953125 378.23828125 C121.94294243 378.80534538 121.94294243 378.80534538 120.58955383 379.38386536 C119.35763557 379.90021797 119.35763557 379.90021797 118.10083008 380.42700195 C117.37946365 380.731689 116.65809723 381.03637604 115.91487122 381.35029602 C114 382 114 382 111 382 C110.91959473 383.06734375 110.83918945 384.1346875 110.75634766 385.234375 C110.45087417 389.2753709 110.14020153 393.31595445 109.828125 397.35644531 C109.69491747 399.09006443 109.56303519 400.82378599 109.43261719 402.55761719 C108.7694027 411.36306496 108.06807391 420.16726526 107.1015625 428.9453125 C106.96830566 430.19328613 106.83504883 431.44125977 106.69775391 432.72705078 C105.61035554 437.82770247 103.15361701 440.95284333 99 444 C91.55873514 448.13403603 81.50913353 444.84656441 73.66796875 442.93359375 C72.82833084 442.73524429 71.98869293 442.53689484 71.12361145 442.33253479 C68.47675129 441.70693403 65.83195943 441.07316644 63.1875 440.4375 C60.52511754 439.79859569 57.86234412 439.16171329 55.1978302 438.53175354 C53.54934063 438.14198509 51.90203568 437.74716102 50.25614929 437.34654236 C44.68883825 435.97781155 44.68883825 435.97781155 39 436 C36.84989517 437.88884908 35.09677931 439.66067635 33.25 441.8125 C32.4612146 442.69893188 32.4612146 442.69893188 31.65649414 443.60327148 C27.74117434 448.03769709 24.00512015 452.61441729 20.296875 457.22265625 C17.67448922 460.39360232 14.95886766 463.45928991 12.1875 466.5 C11.73109131 467.00474854 11.27468262 467.50949707 10.80444336 468.02954102 C8.3888974 470.65532811 6.04206819 473.11225957 3 475 C2.01 475 1.02 475 0 475 C0.229151 475.70806793 0.458302 476.41613586 0.69439697 477.1456604 C2.87352091 483.88052754 5.05031866 490.61614126 7.22462845 497.35256386 C8.34203198 500.81422185 9.46027412 504.27560383 10.58056641 507.73632812 C11.665479 511.08787287 12.74801432 514.44017753 13.8290329 517.79298019 C14.43442363 519.6686213 15.04215635 521.54350599 15.64996338 523.41836548 C26.33044134 556.58070906 26.33044134 556.58070906 17.09082031 574.79199219 C7.55200617 592.96532922 7.55200617 592.96532922 0 598 C-3.375 598.4375 -3.375 598.4375 -7 598 C-11.03799804 594.50908557 -13.96412261 590.48408591 -16.875 586.0625 C-17.30554687 585.41152344 -17.73609375 584.76054688 -18.1796875 584.08984375 C-24.71978372 574.0071954 -32.09489854 562.40885014 -31 550 C-30.0352431 545.73662011 -28.80976346 541.56327707 -27.5625 537.375 C-27.20559082 536.15312988 -26.84868164 534.93125977 -26.48095703 533.67236328 C-20.69749201 513.99854582 -14.62506398 494.40754038 -8 475 C-8.74765625 474.89429688 -9.4953125 474.78859375 -10.265625 474.6796875 C-17.7763662 472.81273183 -22.91257414 464.87551444 -27.5 459.109375 C-30.34510782 455.57077215 -33.28495411 452.12558475 -36.25 448.6875 C-37.234613 447.54577812 -38.21899593 446.40385778 -39.203125 445.26171875 C-39.67943359 444.72466309 -40.15574219 444.18760742 -40.64648438 443.63427734 C-42 442 -42 442 -43.11914062 440.21337891 C-44.32740305 438.22636886 -44.32740305 438.22636886 -47 436 C-53.48989624 435.6910616 -60.17775806 437.57173931 -66.4453125 439.1015625 C-68.1991238 439.51342536 -69.95303303 439.9248714 -71.70703125 440.3359375 C-74.4246784 440.98030271 -77.1411544 441.62890502 -79.85595703 442.28515625 C-82.50806089 442.92345759 -85.16371943 443.54475234 -87.8203125 444.1640625 C-88.62260284 444.36295074 -89.42489319 444.56183899 -90.25149536 444.76675415 C-96.74076853 446.26272075 -102.12420671 446.43789665 -108.25 443.375 C-115.15214364 437.41405776 -115.77293616 430.8156859 -116.484375 422.16015625 C-116.58969543 421.03806259 -116.69501587 419.91596893 -116.80352783 418.75987244 C-117.13452969 415.19530028 -117.44257364 411.62917494 -117.75 408.0625 C-117.97114126 405.63723117 -118.19378121 403.21209851 -118.41796875 400.78710938 C-118.96267708 394.85953956 -119.48857979 388.93052956 -120 383 C-138.76211583 374.77235402 -138.76211583 374.77235402 -157.77539062 367.15039062 C-163.62500929 364.83048997 -168.7189717 362.49478648 -172.27734375 357.04296875 C-174.35664414 351.19878126 -174.500683 346.45038926 -172.0078125 340.71875 C-167.84235795 332.73290813 -162.75024394 325.2220999 -157.9296875 317.62109375 C-157.43049805 316.83331543 -156.93130859 316.04553711 -156.41699219 315.23388672 C-155.53176166 313.83832171 -154.64469722 312.44391632 -153.75488281 311.05126953 C-152.71755118 309.41853302 -151.70153884 307.77230406 -150.6875 306.125 C-150.13449219 305.24070312 -149.58148437 304.35640625 -149.01171875 303.4453125 C-147.74067271 300.37320895 -147.9314809 299.12923451 -149 296 C-150.02900413 293.91943822 -151.14506072 291.8811586 -152.3125 289.875 C-152.65571289 289.28315918 -152.99892578 288.69131836 -153.35253906 288.08154297 C-156.9969033 281.86833087 -160.87495145 275.79721078 -164.78637695 269.74951172 C-174.99488319 253.84789728 -174.99488319 253.84789728 -173.69921875 244.9296875 C-172.23297308 239.68312135 -169.4515572 237.4979827 -164.99169922 234.65039062 C-159.31125423 231.51673565 -153.30340885 229.14303931 -147.2890625 226.73071289 C-145.00100979 225.81290506 -142.71891331 224.8814397 -140.4375 223.94726562 C-133.35986573 221.06351721 -126.29965921 218.2811435 -119 216 C-118.96261719 214.84371094 -118.92523437 213.68742188 -118.88671875 212.49609375 C-118.49262983 201.8979168 -117.82929095 191.31498612 -116.92251587 180.74856567 C-116.80840743 179.38529986 -116.70165674 178.0213962 -116.60263062 176.6569519 C-116.02428907 168.80576406 -115.44409128 162.03718573 -110 156 C-104.84879261 152.07527056 -99.19937198 152.63726706 -93 153 C-89.49343388 153.54485489 -86.09436183 154.37088338 -82.66015625 155.2578125 C-81.26608803 155.59786819 -81.26608803 155.59786819 -79.84385681 155.9447937 C-75.91406495 156.90343079 -71.99176345 157.89111149 -68.0690918 158.87841797 C-65.18545959 159.59962237 -62.29812799 160.3042241 -59.41015625 161.0078125 C-58.52473648 161.23687286 -57.63931671 161.46593323 -56.72706604 161.70193481 C-55.90198044 161.9022934 -55.07689484 162.10265198 -54.22680664 162.30908203 C-53.50497696 162.49117218 -52.78314728 162.67326233 -52.03944397 162.86087036 C-49.43618528 163.0384631 -48.18869799 162.37769681 -46 161 C-44.37857797 159.41218257 -42.82216747 157.75692549 -41.3125 156.0625 C-40.87607178 155.57378418 -40.43964355 155.08506836 -39.98999023 154.58154297 C-35.50277628 149.51708836 -31.26130114 144.25443083 -27 139 C-25.09573464 136.65618523 -23.17752088 134.32471684 -21.25 132 C-20.80213135 131.44779785 -20.3542627 130.8955957 -19.89282227 130.32666016 C-17.23107206 127.13453707 -14.76624193 124.79582396 -11 123 C-10.01 123 -9.02 123 -8 123 C-8.27561768 122.12462585 -8.55123535 121.24925171 -8.83520508 120.34735107 C-11.44231356 112.05643977 -14.03283953 103.76056362 -16.60533142 95.45884323 C-17.92813444 91.1920276 -19.25704293 86.92732705 -20.60058594 82.66699219 C-21.89937293 78.54775901 -23.18122913 74.42359104 -24.45199585 70.29563141 C-24.93725464 68.72951359 -25.42836709 67.16519595 -25.9256897 65.60286713 C-30.83932501 50.14147169 -31.5602494 38.61048197 -24 24 C-9.85616065 -1.30175707 -9.85616065 -1.30175707 0 0 Z M-5 144 C-10.03535185 149.16523196 -14.74549317 154.61936647 -19.25 160.25 C-23.09854856 164.99883403 -27.12019976 169.55863144 -31.25 174.0625 C-31.84071289 174.71831055 -32.43142578 175.37412109 -33.04003906 176.04980469 C-37.2900508 180.63173585 -40.08140535 182.8576443 -46.52880859 183.17211914 C-51.56956889 183.13017468 -56.2409054 182.00692048 -61.1171875 180.8125 C-62.0555545 180.59053955 -62.99392151 180.3685791 -63.96072388 180.13989258 C-66.93422054 179.43497748 -69.90464175 178.71801327 -72.875 178 C-75.86729411 177.28434699 -78.86016578 176.5712028 -81.85354614 175.86010742 C-83.71064682 175.4181268 -85.56701839 174.97306919 -87.4225769 174.5246582 C-88.25749664 174.32445068 -89.09241638 174.12424316 -89.95263672 173.91796875 C-90.68795624 173.74031982 -91.42327576 173.5626709 -92.18087769 173.37963867 C-94.01658431 172.93190267 -94.01658431 172.93190267 -96 173 C-96.0806369 173.91628929 -96.0806369 173.91628929 -96.16290283 174.85108948 C-96.7274478 181.22858848 -97.31529369 187.60363839 -97.91650391 193.9777832 C-98.13761794 196.35451629 -98.35285433 198.73180402 -98.56201172 201.10961914 C-98.86429977 204.53435648 -99.18791516 207.95651939 -99.515625 211.37890625 C-99.64871063 212.9652462 -99.64871063 212.9652462 -99.78448486 214.58363342 C-100.39527043 220.70674334 -101.17986489 225.08759634 -105 230 C-108.09619141 231.9753418 -108.09619141 231.9753418 -111.7265625 233.51171875 C-112.70890366 233.93791756 -112.70890366 233.93791756 -113.71109009 234.37272644 C-115.79852864 235.27133992 -117.89757108 236.13711879 -120 237 C-121.37128493 237.57771388 -122.74205799 238.1566443 -124.11230469 238.73681641 C-128.89605583 240.75052927 -133.69691766 242.72191853 -138.50390625 244.67944336 C-140.55452519 245.51616575 -142.60163784 246.36101798 -144.6484375 247.20703125 C-145.84645996 247.6966333 -147.04448242 248.18623535 -148.27880859 248.69067383 C-151.11074288 249.71141982 -151.11074288 249.71141982 -152 252 C-150.62715917 254.87860299 -150.62715917 254.87860299 -148.625 258.15234375 C-148.08178101 259.07449425 -148.08178101 259.07449425 -147.52758789 260.01527405 C-146.35919241 261.99387979 -145.17956736 263.96553865 -144 265.9375 C-143.23498091 267.23201071 -142.47065011 268.52692844 -141.70703125 269.82226562 C-137.72102315 276.55999277 -133.64449302 283.20898034 -129.3125 289.73266602 C-126.81629076 294.0448489 -126.5219768 298.06042689 -127 303 C-130.44490228 311.59090301 -135.79088065 319.44832835 -140.625 327.3125 C-141.39620708 328.57333918 -142.16704265 329.83440567 -142.9375 331.09570312 C-144.34877444 333.40548502 -145.76255939 335.71364982 -147.17822266 338.02075195 C-148.08000244 339.49547974 -148.08000244 339.49547974 -149 341 C-149.86117432 342.36934692 -149.86117432 342.36934692 -150.73974609 343.76635742 C-152.16379842 345.86287155 -152.16379842 345.86287155 -152 348 C-150.89076172 348.46374023 -149.78152344 348.92748047 -148.63867188 349.40527344 C-144.49264587 351.13946897 -140.34815582 352.87730957 -136.20410156 354.61621094 C-134.41610208 355.36589219 -132.62769692 356.11460668 -130.83886719 356.86230469 C-128.25606712 357.9420706 -125.6747841 359.02539566 -123.09375 360.109375 C-121.90888 360.60337799 -121.90888 360.60337799 -120.70007324 361.10736084 C-104.9817354 367.72462198 -104.9817354 367.72462198 -102 373 C-99.38830544 381.90944788 -99.15718218 391.48184271 -98.4375 400.6875 C-98.24912378 403.04498365 -98.05903365 405.40231042 -97.86671448 407.75947571 C-97.74835953 409.21514988 -97.63241782 410.67102318 -97.51939392 412.12712097 C-97.17264937 416.45351841 -96.65342443 420.71209838 -96 425 C-89.07820337 423.9969511 -82.28373154 422.65640245 -75.48828125 421.01953125 C-74.74343475 420.84146942 -73.99858826 420.66340759 -73.23117065 420.47994995 C-70.14297668 419.73981654 -67.05575723 418.99674339 -63.97338867 418.23266602 C-47.23132942 414.09940975 -47.23132942 414.09940975 -40 416 C-33.29142374 420.09756788 -28.2674383 426.85265808 -23.43359375 432.953125 C-20.59056481 436.51261549 -17.65249597 439.97954075 -14.6875 443.4375 C-14.1836377 444.02877686 -13.67977539 444.62005371 -13.16064453 445.22924805 C-10.54775914 448.27645034 -7.88909547 451.20697896 -5 454 C-1.2097098 452.49066744 0.58677989 450.31798482 3.0625 447.125 C6.41863933 442.902226 9.87953097 438.87701964 13.5625 434.9375 C17.70359854 430.50753774 21.52304424 425.9217314 25.1484375 421.05859375 C29.06915659 416.69948202 32.80550892 415.60674297 38.4498291 415.04981995 C42.93796326 414.9621401 47.09748049 416.02264603 51.43359375 417.08984375 C52.39274185 417.31321915 53.35188995 417.53659454 54.34010315 417.76673889 C57.37599293 418.47661972 60.40666546 419.20636812 63.4375 419.9375 C66.49422627 420.66067143 69.5518797 421.37978011 72.60987854 422.09754944 C74.50613955 422.54417845 76.40147178 422.99477284 78.29576111 423.44969177 C79.14747391 423.65312698 79.99918671 423.85656219 80.87670898 424.06616211 C82.00181129 424.33715981 82.00181129 424.33715981 83.14964294 424.6136322 C85.01125176 425.06813292 85.01125176 425.06813292 87 425 C88.11861126 422.76277747 88.24025354 421.25539386 88.43310547 418.76904297 C88.50342987 417.89408173 88.57375427 417.01912048 88.64620972 416.11764526 C88.71913239 415.1687442 88.79205505 414.21984314 88.8671875 413.2421875 C89.03211605 411.23433914 89.1974952 409.22652774 89.36328125 407.21875 C89.62041937 404.05276749 89.87409821 400.88663153 90.11962891 397.71972656 C90.35842023 394.66377182 90.61179444 391.6092937 90.8671875 388.5546875 C90.97049881 387.14955399 90.97049881 387.14955399 91.07589722 385.71603394 C92.21113377 372.47349733 92.21113377 372.47349733 96.64096069 368.54460144 C101.57873834 365.30057615 107.09082393 363.0512582 112.53125 360.79296875 C113.40777222 360.42271072 114.28429443 360.0524527 115.18737793 359.67097473 C117.95558653 358.50335878 120.72766964 357.34529037 123.5 356.1875 C125.39089053 355.39190684 127.28151824 354.59568872 129.171875 353.79882812 C133.77824485 351.85865134 138.3881115 349.9270198 143 348 C142.13428441 344.07900397 140.4001632 340.96903335 138.359375 337.546875 C137.99531555 336.92782288 137.6312561 336.30877075 137.25616455 335.67095947 C136.09210457 333.69451307 134.921046 331.72231338 133.75 329.75 C132.97742896 328.43905871 132.20528916 327.12786318 131.43359375 325.81640625 C128.35449944 320.59438637 125.2688817 315.38189777 122.015625 310.265625 C118.66478984 304.83675253 118.18535406 300.24019839 119 294 C120.0234375 291.6015625 120.0234375 291.6015625 121.4375 289.125 C121.98156494 288.16916016 122.52562988 287.21332031 123.08618164 286.22851562 C127.22065282 279.25387003 131.44324862 272.33109953 135.71459961 265.43945312 C136.94273785 263.45475524 138.15788958 261.46260119 139.37109375 259.46875 C139.94119423 258.55941711 139.94119423 258.55941711 140.52281189 257.63171387 C141.42780334 256.13289401 142.22403856 254.56950767 143 253 C142.30429236 249.77570435 142.30429236 249.77570435 139.35473633 248.5612793 C138.19224365 248.07054932 137.02975098 247.57981934 135.83203125 247.07421875 C134.8851368 246.6691082 134.8851368 246.6691082 133.91911316 246.2558136 C131.88774396 245.38948223 129.85041645 244.53829938 127.8125 243.6875 C126.48981089 243.12664872 125.16754027 242.56480941 123.84570312 242.00195312 C122.52870278 241.44257425 121.21164551 240.88332937 119.89453125 240.32421875 C119.2410672 240.04665741 118.58760315 239.76909607 117.91433716 239.48312378 C114.63198172 238.09417982 111.34252323 236.73293157 108.02880859 235.42041016 C107.0776844 235.03499809 107.0776844 235.03499809 106.10734558 234.64179993 C104.37448045 233.9401869 102.63601998 233.25243863 100.8972168 232.56567383 C96.88784057 230.39898218 94.96931361 227.77401927 92.8125 223.82666016 C91.57760197 219.53049146 91.3321152 215.21939387 91 210.7734375 C90.87818359 209.29648911 90.87818359 209.29648911 90.75390625 207.78970337 C90.40727927 203.58664293 90.07875675 199.38222505 89.75 195.17773438 C89.50705437 192.10485177 89.25386684 189.03293399 89 185.9609375 C88.89365234 184.53121109 88.89365234 184.53121109 88.78515625 183.07260132 C88.71167969 182.18803253 88.63820313 181.30346375 88.5625 180.39208984 C88.50191406 179.61441254 88.44132812 178.83673523 88.37890625 178.03549194 C88.08144102 175.69634423 88.08144102 175.69634423 86 173 C85.19979431 173.18792114 85.19979431 173.18792114 84.38342285 173.37963867 C78.80492487 174.68786394 73.22364352 175.9836674 67.640625 177.27246094 C65.56046606 177.75433855 63.48102449 178.23932432 61.40234375 178.72753906 C58.40550331 179.43082058 55.4062171 180.1226941 52.40625 180.8125 C51.48509399 181.03123779 50.56393799 181.24997559 49.61486816 181.4753418 C43.08168214 182.96117599 37.05003808 184.18612592 30.625 181.6875 C22.44442191 176.40730869 16.48670951 167.40715281 10.4453125 159.92578125 C7.5543231 156.466754 4.55227306 153.12916456 1.5 149.8125 C0.97100098 149.23516113 0.44200195 148.65782227 -0.10302734 148.06298828 C-1.37971364 146.68761284 -2.6869786 145.34073127 -4 144 C-4.33 144 -4.66 144 -5 144 Z " fill="#FFFFFF" transform="translate(1606,71)"/>
<path d="M0 0 C4.35471147 3.76644343 8.51820785 7.72619168 11 13 C11 13.66 11 14.32 11 15 C11.61746094 14.855625 12.23492188 14.71125 12.87109375 14.5625 C25.29459659 11.83954047 36.55975966 12.44495348 47.75 19.125 C57.36244593 25.74567602 62.96826962 33.82805619 66.6171875 44.8671875 C67.18377332 48.02387994 67.17139683 51.10796953 67.1875 54.3125 C67.20167969 55.58738281 67.21585938 56.86226563 67.23046875 58.17578125 C66.99001075 62.16575384 66.2354171 65.22538569 65 69 C65.99 69.2784375 65.99 69.2784375 67 69.5625 C75.93483114 73.84377325 82.30424902 81.97320998 86 91 C89.81842981 102.49819313 88.57743116 113.92602834 84 125 C80.01753297 132.76463246 73.99814821 139.32085182 66 143 C66.165 144.0725 66.33 145.145 66.5 146.25 C68.18826659 160.30233658 66.31652711 171.36863071 58 183 C51.82967908 190.63728447 43.57006133 195.83319366 34 198 C31.11748852 198.23749122 28.26539979 198.23601378 25.375 198.1875 C24.63765625 198.18685547 23.9003125 198.18621094 23.140625 198.18554688 C19.31007565 198.15465535 15.72323357 197.91977114 12 197 C11.59910156 197.64066406 11.19820312 198.28132812 10.78515625 198.94140625 C3.85669733 209.48334715 -3.92558599 214.80515412 -15.84765625 218.5859375 C-28.26837528 220.97540432 -40.02275112 218.48682894 -50.6015625 211.8125 C-55.81780947 207.87058047 -60.29165026 202.98545291 -63 197 C-64.26070312 197.23976563 -64.26070312 197.23976563 -65.546875 197.484375 C-78.67330558 199.44443024 -90.16797928 198.31265694 -101.0390625 190.53125 C-109.39096541 184.00944534 -115.81497648 175.47562703 -118 165 C-118.62730129 157.74073957 -118.71295489 150.10249589 -117 143 C-117.56847656 142.6596875 -118.13695312 142.319375 -118.72265625 141.96875 C-128.92661632 135.5635931 -135.6108317 127.45014976 -138.61328125 115.57421875 C-140.49057472 103.07789149 -138.70862489 91.2154063 -131.75 80.5625 C-127.64698743 75.14475867 -122.84482569 70.35075274 -116 69 C-116.32226562 67.99453125 -116.64453125 66.9890625 -116.9765625 65.953125 C-120.18340634 54.6582237 -118.15273162 43.73746043 -112.71484375 33.60546875 C-106.399915 23.27994459 -97.50322147 17.10907863 -86.1015625 13.37890625 C-78.6764717 12.0401817 -70.39561869 12.59131073 -63 14 C-62.29037109 12.91332031 -62.29037109 12.91332031 -61.56640625 11.8046875 C-54.22064155 1.06526542 -45.59230064 -4.65086515 -32.9375 -7.75 C-21.17547494 -8.75102341 -9.78735712 -7.07673219 0 0 Z M-63 17 C-67.50930011 30.39369498 -67.24033665 43.15420408 -61.62890625 56.18359375 C-56.24890725 66.93069007 -48.52168929 75.63213182 -40 84 C-37.03 82.68 -34.06 81.36 -31 80 C-30.45099745 60.23590835 -33.36554246 41.18705811 -47.3125 26.1875 C-51.19988579 22.52982337 -57.46637128 17 -63 17 Z M10 17 C-3.92390984 23.05387384 -11.5968735 34.40230124 -17 48 C-20.58399001 58.33032413 -20.66852294 69.17555954 -21 80 C-19.75579353 80.5345256 -18.50429064 81.05208611 -17.25 81.5625 C-16.55390625 81.85253906 -15.8578125 82.14257812 -15.140625 82.44140625 C-12.65095228 83.09108362 -11.38879702 82.9032766 -9 82 C4.12206139 70.2578877 13.63224135 54.14132825 15.22265625 36.53515625 C15.45581243 30.1182927 14.36756152 23.98406604 12 18 C11.34 17.67 10.68 17.34 10 17 Z M-114 69 C-109.0534484 82.07630075 -99.60429538 89.91480875 -87.109375 95.75 C-75.75759052 100.31353145 -64.0666742 100.63048199 -52 101 C-51.30062798 99.5682384 -50.61587282 98.12932968 -49.9375 96.6875 C-49.55464844 95.88699219 -49.17179687 95.08648437 -48.77734375 94.26171875 C-47.70264486 91.87971247 -47.70264486 91.87971247 -49 89 C-52.48724714 85.78675085 -56.28059727 82.93921139 -60 80 C-60.75023437 79.36191406 -61.50046875 78.72382813 -62.2734375 78.06640625 C-75.12345702 67.34213345 -98.42315874 58.61543916 -114 69 Z M5 83 C4.1853125 83.70382812 3.370625 84.40765625 2.53125 85.1328125 C0.67783827 86.74475862 -1.16617624 88.36584759 -3 90 C-2.32829194 93.8063457 -1.27253436 97.35206816 0 101 C18.92734108 100.14370474 18.92734108 100.14370474 37 95 C37.93457031 94.60167969 38.86914062 94.20335937 39.83203125 93.79296875 C49.36194759 89.1679604 58.85762311 80.94170453 63 71 C62.505 69.515 62.505 69.515 62 68 C41.10547123 58.47397657 20.65409244 69.37339544 5 83 Z M0 110 C-1.485 115.445 -1.485 115.445 -3 121 C12.21440976 135.60461378 27.40004302 146.31975473 49.171875 146.234375 C54.11233477 145.93189787 58.4140093 144.81281515 63 143 C60.90004661 133.900202 53.45877994 126.2635943 46 121 C31.55760604 112.10953526 16.63106309 110.64135749 0 110 Z M-104.625 127.375 C-111.02440671 134.29193805 -111.02440671 134.29193805 -114 143 C-100.04452256 148.51651814 -86.78138806 146.52571161 -73.2734375 140.85546875 C-63.28001461 135.9766738 -54.76936605 127.86706641 -47 120 C-47.474375 119.2575 -47.94875 118.515 -48.4375 117.75 C-49.79646914 115.35821432 -50.42045741 113.63326146 -51 111 C-70.86523314 109.92941857 -89.64644788 113.82297665 -104.625 127.375 Z M-42.8828125 129.80078125 C-56.40309212 144.94632097 -66.7613673 159.83063949 -66.3046875 180.86328125 C-65.85650189 185.47729466 -64.6392066 189.67756831 -63 194 C-54.04554783 192.69414239 -47.43762321 185.16512847 -42 178.375 C-34.1324733 167.62812075 -31.86572682 155.97689716 -30.875 143 C-30.78863281 141.93910156 -30.70226563 140.87820313 -30.61328125 139.78515625 C-30.40290531 137.19051971 -30.1986266 134.5955579 -30 132 C-31.4562545 131.32880451 -32.91507867 130.66318193 -34.375 130 C-35.18710938 129.62875 -35.99921875 129.2575 -36.8359375 128.875 C-39.88244467 127.64319927 -40.4523638 127.47622347 -42.8828125 129.80078125 Z M-16.625 129.5 C-17.85089844 129.91765625 -17.85089844 129.91765625 -19.1015625 130.34375 C-19.72804688 130.5603125 -20.35453125 130.776875 -21 131 C-19.53237174 151.73123722 -18.12179406 170.30063742 -3 186 C1.69929756 189.93995984 5.83294433 193.11273267 12 194 C16.58610804 178.11241143 15.62595097 164.65996354 7.73046875 149.84375 C4.89982321 145.19203453 1.57156436 141.0979703 -2 137 C-2.7321875 136.13503906 -3.464375 135.27007812 -4.21875 134.37890625 C-7.01607383 131.10176391 -7.01607383 131.10176391 -10 128 C-12.46620289 128 -14.29344126 128.70060843 -16.625 129.5 Z " fill="#FFFFFF" transform="translate(1627,266)"/>
<path d="M0 0 C20.17952732 15.86367466 31.28264581 37.42841011 37.25 62.0625 C37.42934082 62.79758789 37.60868164 63.53267578 37.79345703 64.29003906 C45.93164128 99.96227865 41.87760276 143.43308054 23.25 175.0625 C20.46974571 179.26498028 17.46749342 183.18713422 14.25 187.0625 C13.54101562 187.93519531 12.83203125 188.80789063 12.1015625 189.70703125 C0.81738426 202.96695911 -14.20839642 211.70045713 -30.5 217.375 C-31.46123779 217.72050903 -31.46123779 217.72050903 -32.44189453 218.07299805 C-47.29876919 222.91222629 -63.03534878 223.52316029 -78.515625 223.4609375 C-80.33258175 223.46296625 -82.14953769 223.46588429 -83.9664917 223.46963501 C-87.73115979 223.47400724 -91.49561137 223.46778572 -95.26025391 223.45361328 C-100.07165503 223.4363751 -104.8825593 223.44648636 -109.69394302 223.46433067 C-113.42752827 223.47518165 -117.16099584 223.47171868 -120.89458466 223.4639473 C-122.66951305 223.46195658 -124.44445236 223.46436459 -126.21936798 223.47138596 C-128.69243242 223.47903888 -131.16469071 223.46734983 -133.63769531 223.45068359 C-134.35878983 223.45675629 -135.07988434 223.46282898 -135.8228302 223.46908569 C-141.83432542 223.39435956 -146.4675144 222.0365416 -151.0625 218.0625 C-154.34669787 212.223926 -155.37235453 205.76979419 -154.0625 199.1875 C-152.72074048 194.4618061 -151.45140515 191.10347299 -147.12057495 188.45373535 C-143.32019499 186.88509409 -140.1087855 186.64185802 -136.07080078 186.67773438 C-134.95223946 186.66967522 -134.95223946 186.66967522 -133.81108093 186.66145325 C-132.19880886 186.65170701 -130.58648452 186.64872153 -128.97418594 186.65180969 C-126.4066842 186.65631783 -123.83986108 186.64219809 -121.27243042 186.62341309 C-115.80663136 186.58670639 -110.34090404 186.5729621 -104.875 186.5625 C-98.5687684 186.55034388 -92.2628678 186.52830475 -85.95678329 186.48249817 C-83.45559638 186.46913876 -80.95485103 186.47306235 -78.4536438 186.47790527 C-60.39210159 186.41583609 -42.12602814 184.11013047 -28.48046875 170.98828125 C-8.87956391 149.17508467 -5.47870574 118.12167837 -6.58154297 89.98779297 C-7.87593285 67.51043122 -12.81184215 45.04560417 -29.75 29.0625 C-39.88363336 20.92408979 -52.05635807 16.37652096 -65.1171875 16.68359375 C-70.39713945 17.44346814 -75.01491705 19.69495852 -79.75 22.0625 C-80.64203125 22.50851562 -81.5340625 22.95453125 -82.453125 23.4140625 C-92.68735196 29.03346933 -98.92756184 37.09241324 -102.75 48.0625 C-104.5598336 54.60574454 -105.20423437 61.31224089 -105.75 68.0625 C-117.26596808 68.74101858 -128.8442282 67.55170724 -138.03125 59.90234375 C-145.65248259 51.74416068 -147.12925211 43.65305797 -147.02734375 32.828125 C-146.0966682 20.19191053 -140.32686 8.64417152 -131.125 0 C-95.4896011 -29.07098331 -35.88222031 -27.35049785 0 0 Z " fill="#FFFFFF" transform="translate(742.75,292.9375)"/>
<path d="M0 0 C4.95 0 9.9 0 15 0 C15 199.98 15 399.96 15 606 C10.05 606 5.1 606 0 606 C0 406.02 0 206.04 0 0 Z " fill="#FFFFFF" transform="translate(1149,64)"/>
<path d="M0 0 C4.06695069 2.57472376 6.1365514 4.40096075 7.42578125 9.07421875 C7.74743894 10.60673524 8.04214565 12.14510609 8.3125 13.6875 C8.54984863 14.89950073 8.54984863 14.89950073 8.79199219 16.13598633 C12.35276693 34.84134583 13.75823106 55.39597215 3 72 C-2.61299425 78.3795265 -8.77165698 80.35744225 -17.09765625 80.9609375 C-25.52378741 81.07434438 -31.95772979 78.45670241 -39 74 C-39.4125 74.56847656 -39.825 75.13695312 -40.25 75.72265625 C-46.88201155 84.59001098 -52.78001793 90.94824051 -64 93 C-71.13955401 93.76495222 -77.78637054 91.70519114 -84.0625 88.375 C-98.91328305 76.36798392 -110.21576853 57.73351235 -113.38671875 38.67578125 C-113.66278405 33.67804732 -112.15294937 30.76602286 -109 27 C-106.48327985 24.3964964 -105.26812229 24.03475659 -101.625 23.5625 C-97.17475238 24.09959885 -95.3181987 24.9767523 -92 28 C-90.984375 29.86743164 -90.984375 29.86743164 -90.0625 32.03515625 C-89.72130127 32.83574463 -89.38010254 33.63633301 -89.02856445 34.46118164 C-87.68745595 37.77145635 -86.41895107 41.10626258 -85.15869141 44.44799805 C-80.63593933 57.64195943 -80.63593933 57.64195943 -71 67 C-69.45976004 67.06950541 -67.91665012 67.08452357 -66.375 67.0625 C-65.55773437 67.05347656 -64.74046875 67.04445313 -63.8984375 67.03515625 C-63.27195313 67.02355469 -62.64546875 67.01195312 -62 67 C-58.74867638 61.56822521 -59.29033308 54.70128007 -60.453125 48.63671875 C-60.63359375 47.93160156 -60.8140625 47.22648437 -61 46.5 C-62.47468325 40.63332533 -63.40365579 33.75514101 -61.2421875 27.97265625 C-59.38542707 24.98283336 -57.38331218 22.93980894 -54 22 C-47.06855595 21.33986247 -47.06855595 21.33986247 -43.49609375 23.546875 C-40.38353593 26.60585201 -38.81946543 29.70252204 -37 33.625 C-36.48518066 34.68980591 -36.48518066 34.68980591 -35.95996094 35.77612305 C-34.45371974 38.89523257 -32.98525755 42.03146349 -31.515625 45.16796875 C-31.09796875 46.04066406 -30.6803125 46.91335937 -30.25 47.8125 C-29.90453125 48.56144531 -29.5590625 49.31039062 -29.203125 50.08203125 C-27.75077119 52.39730956 -26.33211853 53.58672742 -24 55 C-19.31132959 55.55076849 -19.31132959 55.55076849 -15.125 53.75 C-10.23545189 46.14403627 -13.08803556 34.70355565 -14.5 26.375 C-17.47349109 8.80953615 -17.47349109 8.80953615 -14 3 C-9.97334966 -0.41655181 -5.08177477 -1.26835758 0 0 Z " fill="#FFFFFF" transform="translate(311,96)"/>
<path d="M0 0 C1 1 1 1 1.35546875 3.47265625 C0.85225751 8.46606012 -1.29137942 12.08202625 -3.6875 16.4375 C-4.4285498 17.81687744 -4.4285498 17.81687744 -5.18457031 19.22412109 C-9.84053928 27.83868282 -14.66844452 36.35808929 -19.52734375 44.859375 C-22.03249554 49.25761217 -24.47127053 53.68849407 -26.87890625 58.140625 C-27.86843139 59.95977259 -28.85876048 61.77848056 -29.84924316 63.59710693 C-30.78245775 65.31955071 -31.70345247 67.04859778 -32.62402344 68.77783203 C-40.03249284 82.35866384 -47.47702513 89.2906251 -62.125 94.125 C-72.96839766 97.26690321 -85.70686115 100.8791783 -97 99 C-100.25 97 -100.25 97 -102 94 C-103.12850436 77.70949349 -97.41068182 55.64516697 -87.3125 42.6875 C-80.53663049 35.85525886 -71.57750357 32.08482545 -63 28 C-62.15195801 27.59233398 -61.30391602 27.18466797 -60.43017578 26.76464844 C-56.83958408 25.0389377 -53.2469085 23.31841475 -49.64233398 21.62207031 C-43.43624694 18.69106201 -37.2989553 15.64543014 -31.1875 12.5234375 C-29.64400016 11.73828679 -28.10046164 10.95321213 -26.55688477 10.16821289 C-24.25716534 8.99814834 -21.95995414 7.82413927 -19.66915894 6.63668823 C-17.52300794 5.52445155 -15.36978658 4.42711255 -13.21484375 3.33203125 C-12.5751062 2.99509247 -11.93536865 2.65815369 -11.27624512 2.31100464 C-7.35977402 0.34100538 -4.37873827 -0.45396099 0 0 Z " fill="#FFFFFF" transform="translate(1420,548)"/>
<path d="M0 0 C1.60198242 0.30744141 1.60198242 0.30744141 3.23632812 0.62109375 C18.7877602 3.75608006 29.33211252 8.82971484 38.26342773 22.1496582 C41.81196961 27.61023339 44.81750606 33.34759442 47.8125 39.125 C49.10471773 41.58449842 50.40359721 44.04045145 51.703125 46.49609375 C52.02551147 47.106772 52.34789795 47.71745026 52.68005371 48.34663391 C55.8625375 54.3570302 59.19574908 60.27855888 62.5625 66.1875 C63.09673584 67.12956299 63.63097168 68.07162598 64.18139648 69.04223633 C66.97886255 73.97543779 66.97886255 73.97543779 69.79931641 78.89550781 C70.83554932 80.69487888 71.85604301 82.5032898 72.875 84.3125 C73.40738281 85.24191406 73.93976563 86.17132813 74.48828125 87.12890625 C75.74313658 90.19075326 75.84011106 92.47042523 75.5625 95.75 C74.5625 96.75 74.5625 96.75 71.82115173 96.94854736 C68.41292371 96.74088642 66.45991838 96.07885584 63.42407227 94.57324219 C62.44977768 94.09759827 61.47548309 93.62195435 60.47166443 93.13189697 C59.43042923 92.60883972 58.38919403 92.08578247 57.31640625 91.546875 C56.21905655 91.00722107 55.12170685 90.46756714 53.99110413 89.91156006 C51.67465937 88.77161292 49.36054787 87.62691373 47.04864502 86.4777832 C43.69546424 84.81589897 40.33256612 83.17609521 36.96435547 81.54492188 C31.54899822 78.92119461 26.14794922 76.26978342 20.75366211 73.60302734 C18.55721457 72.52087273 16.35757668 71.445173 14.1550293 70.37548828 C10.89629957 68.79178426 7.64857412 67.18726442 4.40234375 65.578125 C3.42837143 65.11021545 2.45439911 64.64230591 1.45091248 64.16021729 C-11.4327501 57.7000115 -16.80392431 48.8377915 -21.58984375 35.55078125 C-29.69079738 10.69766691 -29.69079738 10.69766691 -26.6875 1.4375 C-21.10250022 -6.1022497 -7.58851953 -1.56059752 0 0 Z " fill="#FFFFFF" transform="translate(1345.4375,92.25)"/>
<path d="M0 0 C3.49143987 6.98287974 0.43245625 16.75854432 -1.625 23.8125 C-1.89642822 24.76592285 -2.16785645 25.7193457 -2.44750977 26.70166016 C-7.29032176 43.24525413 -12.5399008 54.51538457 -28 63 C-32.22655497 65.09971969 -36.51308055 67.05465498 -40.8125 69 C-43.28821924 70.13159451 -45.76153428 71.26838078 -48.234375 72.40625 C-48.86739029 72.69713501 -49.50040558 72.98802002 -50.15260315 73.28771973 C-58.5394784 77.15320356 -66.83872928 81.20078249 -75.1418457 85.2421875 C-78.42373093 86.83692121 -81.71161634 88.41872303 -85 90 C-86.01304199 90.50015625 -87.02608398 91.0003125 -88.06982422 91.515625 C-89.50285889 92.20398438 -89.50285889 92.20398438 -90.96484375 92.90625 C-92.20995728 93.51436523 -92.20995728 93.51436523 -93.48022461 94.13476562 C-96.45890569 95.15757792 -98.87131178 95.2201618 -102 95 C-103 94 -103 94 -103.23681641 91.29052734 C-102.96859587 87.5636445 -102.0515261 85.58345351 -100.2109375 82.3515625 C-99.30347778 80.73785767 -99.30347778 80.73785767 -98.37768555 79.09155273 C-97.71045304 77.93584495 -97.04288276 76.78033212 -96.375 75.625 C-95.69147596 74.42121489 -95.00895382 73.21686039 -94.32739258 72.01196289 C-89.27924179 63.11570243 -84.1252985 54.27806604 -78.93676758 45.46313477 C-75.81213679 40.14925517 -72.76922364 34.8048834 -69.82739258 29.38769531 C-61.75511472 14.54878887 -55.60031986 7.46457988 -39.0625 2.375 C-8.70665854 -6.46780348 -8.70665854 -6.46780348 0 0 Z " fill="#FFFFFF" transform="translate(1885,95)"/>
<path d="M0 0 C7.04680637 0.24536234 12.85745012 3.44063539 19.125 6.4375 C20.33226048 7.00705983 21.53978746 7.57605507 22.74755859 8.14453125 C38.62262146 15.64234529 54.4004114 23.35257691 70.15600586 31.09768677 C71.81842254 31.91114953 73.48605684 32.71392839 75.15429688 33.51538086 C76.03408203 33.94214111 76.91386719 34.36890137 77.8203125 34.80859375 C78.54234863 35.15462646 79.26438477 35.50065918 80.00830078 35.85717773 C92.75155365 43.16916188 96.43779119 57.61122785 100.08447266 70.78979492 C100.73396878 73.19053979 101.37486908 75.59280346 102 78 C102.27614136 79.05006226 102.27614136 79.05006226 102.55786133 80.12133789 C103.87214514 85.70577406 104.06420217 91.24921578 101.0625 96.1875 C94.37251626 100.14687813 85.67170067 97.68123381 78.375 96.3125 C77.41440674 96.13315918 76.45381348 95.95381836 75.46411133 95.76904297 C48.43028831 90.49558347 48.43028831 90.49558347 41.32202148 80.68383789 C40.78134033 79.80977295 40.24065918 78.93570801 39.68359375 78.03515625 C39.07757324 77.05611328 38.47155273 76.07707031 37.84716797 75.06835938 C34.85689176 70.10116517 31.94205031 65.09458737 29.0625 60.0625 C28.42642822 58.95583984 27.79035645 57.84917969 27.13500977 56.70898438 C23.63857026 50.62366918 20.1586778 44.52889611 16.6796875 38.43359375 C16.32363937 37.80993423 15.96759125 37.18627472 15.60075378 36.54371643 C13.88362309 33.53555975 12.16790173 30.52661939 10.45532227 27.51586914 C9.51644165 25.86832642 9.51644165 25.86832642 8.55859375 24.1875 C7.66418579 22.61730103 7.66418579 22.61730103 6.75170898 21.01538086 C4.61340712 17.33452145 2.37473354 13.72118712 0.09375 10.12719727 C-1.58576159 6.86077216 -1.53555516 4.59587033 -1 1 C-0.67 0.67 -0.34 0.34 0 0 Z " fill="#FFFFFF" transform="translate(1783,547)"/>
<path d="M0 0 C1.11439453 0.33660645 2.22878906 0.67321289 3.37695312 1.02001953 C15.14546294 4.6145657 26.85489926 8.40022925 38.5625 12.1875 C39.5312204 12.49972504 40.4999408 12.81195007 41.49801636 13.13363647 C44.27124306 14.02917505 47.04219649 14.93140211 49.8125 15.8359375 C50.65196671 16.1064946 51.49143341 16.3770517 52.3563385 16.6558075 C53.51799782 17.0376696 53.51799782 17.0376696 54.703125 17.42724609 C55.37891602 17.64738373 56.05470703 17.86752136 56.75097656 18.09432983 C58.5625 18.8125 58.5625 18.8125 61.5625 20.8125 C61.75 23.4375 61.75 23.4375 61.5625 25.8125 C55.29126488 28.77670998 49.00129843 31.07246719 42.359375 33.0546875 C41.40089661 33.3455423 40.44241821 33.63639709 39.45489502 33.93606567 C36.40904127 34.85864266 33.36079098 35.7730127 30.3125 36.6875 C28.31495394 37.29247295 26.31755693 37.89793824 24.3203125 38.50390625 C18.40702773 40.29377909 12.48650126 42.05845581 6.5625 43.8125 C5.57399048 44.10622498 4.58548096 44.39994995 3.5670166 44.70257568 C0.69257058 45.55372708 -2.18440758 46.39564649 -5.0625 47.234375 C-5.92417786 47.48992157 -6.78585571 47.74546814 -7.67364502 48.00875854 C-20.24242668 51.63560631 -29.03087672 48.08312703 -40.20166016 42.08496094 C-57.85386806 32.03873823 -57.85386806 32.03873823 -61.4375 25.8125 C-61.9375 22.375 -61.9375 22.375 -61.4375 18.8125 C-58.09516121 14.96727721 -54.28464252 12.13617807 -50 9.4375 C-49.39599365 9.05392334 -48.7919873 8.67034668 -48.16967773 8.27514648 C-31.3463852 -2.21467122 -19.28205756 -5.93040258 0 0 Z " fill="#FFFFFF" transform="translate(1364.4375,345.1875)"/>
<path d="M0 0 C19.77961097 11.57729677 19.77961097 11.57729677 22.35253906 18.31591797 C21.90555601 23.41152473 19.79944453 25.70423298 16.04003906 28.87841797 C4.1782619 38.01019435 -9.54851043 47.03783753 -24.95996094 46.87841797 C-28.45496422 46.38509236 -31.71985626 45.42952849 -35.08496094 44.37841797 C-36.58567139 43.93320801 -36.58567139 43.93320801 -38.11669922 43.47900391 C-40.5397642 42.75488544 -42.95885651 42.02215607 -45.37597656 41.27880859 C-49.93273453 39.88056631 -54.50100865 38.52196829 -59.06948853 37.16259766 C-63.53314336 35.8321251 -67.99348982 34.49080904 -72.45306396 33.14672852 C-74.70679499 32.46811586 -76.96123211 31.7918438 -79.21636963 31.11791992 C-82.42300232 30.15718494 -85.62546349 29.18362169 -88.82714844 28.20654297 C-89.80423767 27.91608093 -90.7813269 27.6256189 -91.7880249 27.32635498 C-92.6889386 27.04866272 -93.58985229 26.77097046 -94.51806641 26.48486328 C-95.30647919 26.24616516 -96.09489197 26.00746704 -96.90719604 25.76153564 C-99.22729599 24.76340806 -100.50293623 23.95061555 -101.95996094 21.87841797 C-101.85057068 19.81491089 -101.85057068 19.81491089 -100.95996094 17.87841797 C-94.44197296 13.89936528 -87.21340346 11.86981022 -79.95605469 9.62060547 C-78.71880142 9.2314798 -77.48154816 8.84235413 -76.20680237 8.44143677 C-72.93827519 7.41366962 -69.66723943 6.39412606 -66.39562988 5.3762207 C-63.73452279 4.54678895 -61.0752275 3.71163927 -58.41601467 2.87615776 C-17.45961551 -9.99121495 -17.45961551 -9.99121495 0 0 Z " fill="#FFFFFF" transform="translate(1878.9599609375,348.12158203125)"/>
<path d="M0 0 C6.36403256 3.11962381 11.29262172 8.51750629 13.875 15.125 C17.07748946 26.40083115 14.86435401 36.50729335 9.60083008 46.71289062 C8.00872822 49.525867 6.36146475 52.2974815 4.6875 55.0625 C3.44302749 57.15306103 2.19957598 59.2442301 0.95703125 61.3359375 C0.3120166 62.41713867 -0.33299805 63.49833984 -0.99755859 64.61230469 C-3.0666697 68.11279064 -5.09733187 71.6328244 -7.11328125 75.1640625 C-7.450215 75.7533403 -7.78714874 76.3426181 -8.1342926 76.94975281 C-9.76840863 79.80873443 -11.39880204 82.66975896 -13.0246582 85.53344727 C-13.91350708 87.0850354 -13.91350708 87.0850354 -14.8203125 88.66796875 C-15.33867676 89.57828857 -15.85704102 90.4886084 -16.39111328 91.42651367 C-18.09393142 94.15024751 -19.85591213 96.60634562 -22 99 C-24.625 99.4375 -24.625 99.4375 -27 99 C-29 97 -29 97 -29.24291992 94.15966797 C-29.23881104 92.94939941 -29.23470215 91.73913086 -29.23046875 90.4921875 C-29.23050903 89.82694061 -29.23054932 89.16169373 -29.23059082 88.47628784 C-29.22716617 86.27566557 -29.20817539 84.07552354 -29.1875 81.875 C-29.17859452 80.34407666 -29.16988928 78.81315214 -29.16137695 77.28222656 C-29.12853109 72.52115816 -29.06695149 67.76069383 -29 63 C-28.99033203 62.24666382 -28.98066406 61.49332764 -28.97070312 60.71716309 C-28.914118 56.40278343 -28.8381965 52.08945429 -28.73452759 47.77593994 C-28.68895916 45.8128603 -28.65423651 43.84953821 -28.61987305 41.88623047 C-28.26034501 29.53891778 -27.24994831 15.54320465 -18.26171875 6.19140625 C-12.51948581 1.06397341 -7.77230098 -1.07157378 0 0 Z " fill="#FFFFFF" transform="translate(1790,71)"/>
<path d="M0 0 C8.8300402 4.36934748 13.93004392 10.29044516 17.5 19.4375 C18.77987696 23.30674974 18.64366455 27.20551728 18.6328125 31.234375 C18.63426773 32.00849731 18.63572296 32.78261963 18.63722229 33.5802002 C18.63947527 36.11601553 18.63317291 38.65169793 18.625 41.1875 C18.62311676 42.05032593 18.62123352 42.91315186 18.61929321 43.80212402 C18.58963985 55.4020883 18.51355075 67.00375045 18.23553467 78.60070801 C18.20362629 79.98691831 18.17645131 81.373246 18.15411377 82.75964355 C18.12123683 84.67860944 18.06702498 86.59717453 18.01171875 88.515625 C17.98553467 89.59231445 17.95935059 90.66900391 17.93237305 91.77832031 C17.5 94.4375 17.5 94.4375 16.34301758 96.37011719 C14.5 97.4375 14.5 97.4375 11.55517578 97.53173828 C8.10790143 96.29706642 7.18289462 95.08910186 5.53483582 91.8802948 C5.23201187 91.23659439 4.92918793 90.59289398 4.6171875 89.9296875 C4.28056595 89.26056839 3.9439444 88.59144928 3.59712219 87.90205383 C2.50242463 85.71512988 1.43883319 83.51457966 0.375 81.3125 C-0.37371913 79.80141008 -1.12462883 78.29140366 -1.87768555 76.7824707 C-3.38571452 73.75783438 -4.8841727 70.72872369 -6.37744141 67.69677734 C-9.67052486 61.04544315 -13.19280955 54.51386952 -16.74462891 47.99755859 C-23.17952881 35.88660241 -27.50408968 22.99169116 -23.6171875 9.3359375 C-21.83166953 5.32739054 -19.87490238 2.26513002 -16.1875 -0.1875 C-10.17735475 -2.42857111 -5.84658283 -2.32055092 0 0 Z " fill="#FFFFFF" transform="translate(1424.5,72.5625)"/>
<path d="M0 0 C2.47456348 1.26175926 4.95210951 2.51761005 7.4296875 3.7734375 C8.04840225 4.08795868 8.667117 4.40247986 9.30458069 4.72653198 C16.28608212 8.26661739 23.35535977 11.61959097 30.44018555 14.94726562 C35.36529255 17.27395882 40.12466236 19.72439081 44.8125 22.5 C44.8125 24.81 44.8125 27.12 44.8125 29.5 C38.06380122 31.93306062 31.36188646 31.97833742 24.2421875 32.203125 C22.92896515 32.24943054 21.6157428 32.29573608 20.26272583 32.34344482 C17.48748628 32.43998693 14.71212779 32.52984873 11.93652344 32.61523438 C8.41632406 32.72427023 4.89710943 32.85218122 1.37775993 32.98558426 C-2.02123856 33.11122143 -5.42075561 33.21863855 -8.8203125 33.328125 C-10.68817917 33.39981903 -10.68817917 33.39981903 -12.59378052 33.47296143 C-25.94006396 33.84890675 -38.60197694 32.95576431 -49.125 24 C-53.01451267 19.28543918 -54.97614109 15.73508795 -55.1875 9.5 C-54.16901774 3.42505285 -51.08496856 -0.22646839 -46.375 -4.02734375 C-30.60570996 -14.64345508 -15.08921443 -7.7880492 0 0 Z " fill="#FFFFFF" transform="translate(1357.1875,180.5)"/>
<path d="M0 0 C1.6844754 0.017696 3.36896553 0.03403876 5.0534668 0.04907227 C10.01570362 0.10216675 14.97632932 0.19808711 19.9375 0.3125 C20.65671631 0.32901611 21.37593262 0.34553223 22.11694336 0.36254883 C53.54047847 1.11398924 53.54047847 1.11398924 57.9375 3.3125 C57.9375 5.6225 57.9375 7.9325 57.9375 10.3125 C45.63888377 16.83440058 33.29361607 23.25324804 20.85375977 29.50195312 C19.09645123 30.38645685 17.34095344 31.27456603 15.5871582 32.16601562 C12.99558539 33.48312646 10.39887787 34.78956444 7.80078125 36.09375 C7.0267244 36.48953247 6.25266754 36.88531494 5.45515442 37.29309082 C-4.60091231 42.30121641 -14.84052547 44.2706476 -25.75 40.75 C-31.62693933 38.38406884 -36.82179723 34.85354503 -40.25390625 29.4296875 C-41.87080408 25.19607096 -41.57363617 20.75744367 -41.0625 16.3125 C-39.5 13 -39.5 13 -37.0625 10.3125 C-36.59972656 9.80074219 -36.13695312 9.28898438 -35.66015625 8.76171875 C-25.95862027 -0.7974964 -12.63854511 -0.2400807 0 0 Z " fill="#FFFFFF" transform="translate(1344.0625,523.6875)"/>
<path d="M0 0 C7.38969546 5.30714492 11.9023044 11.20235031 13.6796875 20.24609375 C14.89863809 30.163919 13.22345476 37.21091772 7.203125 45.2421875 C0.81133817 52.39953054 -6.32138623 55.09698679 -15.7265625 55.85546875 C-24.24360674 55.57156728 -31.79469759 52.5478434 -37.8515625 46.54296875 C-43.66353059 39.33612831 -46.35796524 32.78544267 -46.16796875 23.48828125 C-45.34747529 15.85060135 -42.4999202 8.8229553 -36.8515625 3.54296875 C-25.80852815 -4.0704403 -12.24195526 -7.25976416 0 0 Z " fill="#FFFFFF" transform="translate(693.8515625,185.45703125)"/>
<path d="M0 0 C2.85772904 2.28231633 4.91759306 4.21983326 5.43334961 7.90380859 C5.46686523 8.66177734 5.50038086 9.41974609 5.53491211 10.20068359 C5.58389648 10.94833984 5.63288086 11.69599609 5.68334961 12.46630859 C4.89786224 16.19444266 3.00041727 18.53463962 0.15991211 20.95068359 C-3.43470156 22.77416389 -7.18307779 24.00193175 -11.00805664 25.25537109 C-12.11054245 25.63394257 -13.21302826 26.01251404 -14.34892273 26.40255737 C-16.67452643 27.19976454 -19.00285618 27.98905825 -21.3336792 28.77087402 C-25.79987852 30.2736266 -30.24688622 31.82883977 -34.69509888 33.3838501 C-40.17559857 35.29656076 -45.6646613 37.18441231 -51.15258789 39.07568359 C-54.47669144 40.22273169 -57.80062933 41.3702538 -61.12423706 42.51873779 C-63.28131554 43.26310831 -65.43912001 44.00537872 -67.59768677 44.74542236 C-72.63636211 46.47649441 -77.65691325 48.2396866 -82.65014648 50.09814453 C-83.55758102 50.43111542 -84.46501556 50.7640863 -85.39994812 51.10714722 C-87.07866177 51.72551883 -88.75297477 52.35604206 -90.42146301 53.00149536 C-95.28664289 54.78066555 -98.65724616 55.21703269 -103.84008789 53.95068359 C-106.813143 52.2509489 -109.29027263 50.05031411 -110.84008789 46.95068359 C-111.10532979 42.90574467 -111.22360128 40.00534542 -109.84008789 36.20068359 C-104.46928394 30.15852915 -94.89065987 28.08512371 -87.46118164 25.57177734 C-85.67091553 24.95814079 -85.67091553 24.95814079 -83.84448242 24.33210754 C-80.64809836 23.23733667 -77.45019099 22.14727471 -74.25135422 21.05970764 C-68.9817054 19.26684298 -63.71531908 17.46439639 -58.44896126 15.66189194 C-57.14767534 15.21655732 -55.84630791 14.7714608 -54.54485893 14.32660294 C-46.81503354 11.68346266 -39.10454271 8.99921411 -31.43383789 6.18896484 C-30.70447525 5.9230101 -29.97511261 5.65705536 -29.22364807 5.38304138 C-26.04536591 4.22227686 -22.87445631 3.04767075 -19.7109375 1.84692383 C-5.74971949 -3.27879718 -5.74971949 -3.27879718 0 0 Z " fill="#FFFFFF" transform="translate(860.840087890625,186.04931640625)"/>
<path d="M0 0 C3.73634034 3.20257743 4.45881154 4.75430385 5 9.625 C4.53663114 14.10423236 3.66046775 15.91838906 0.625 19.25 C-5.86241969 22.85949514 -13.19521919 25.02841065 -20.1953125 27.41015625 C-21.32072952 27.7969606 -22.44614655 28.18376495 -23.60566711 28.58229065 C-27.23586098 29.82937316 -30.86786976 31.07106974 -34.5 32.3125 C-39.47340654 34.0173498 -44.44588516 35.72488981 -49.41796875 37.43359375 C-50.63317703 37.85092773 -51.84838531 38.26826172 -53.10041809 38.69824219 C-59.9547837 41.05691409 -66.79512311 43.44877536 -73.61328125 45.91015625 C-74.34166199 46.17254593 -75.07004272 46.43493561 -75.82049561 46.70527649 C-79.03136615 47.86387051 -82.23791234 49.03216034 -85.43994141 50.21508789 C-99.11717685 55.17513096 -99.11717685 55.17513096 -104.6171875 53.61328125 C-110.47692445 49.84230221 -110.47692445 49.84230221 -111.375 46.25 C-111.9831595 39.96568516 -111.42041178 37.35055988 -107.375 32.25 C-104.86058656 30.90081635 -102.69939606 29.94991011 -100.03515625 29.03515625 C-98.87911644 28.61206932 -98.87911644 28.61206932 -97.69972229 28.18043518 C-94.93307109 27.1787335 -92.15531317 26.21311943 -89.375 25.25 C-88.27146179 24.86269714 -87.16792358 24.47539429 -86.03094482 24.07635498 C-77.6524049 21.13694106 -69.25572356 18.25263281 -60.85266113 15.38427734 C-56.78944099 13.99656355 -52.72768447 12.60457201 -48.66611671 11.21203041 C-45.40840179 10.09514139 -42.15011782 8.98000385 -38.89022827 7.86947632 C-33.56351614 6.05076016 -28.24550543 4.22307807 -22.96923828 2.26220703 C-22.19145523 1.97547623 -21.41367218 1.68874542 -20.61231995 1.39332581 C-18.67233227 0.6719091 -16.73826129 -0.06536913 -14.80493164 -0.80444336 C-9.44130275 -2.28307776 -5.07607764 -2.63204026 0 0 Z " fill="#FFFFFF" transform="translate(327.375,186.75)"/>
<path d="M0 0 C4.06539207 0.69381162 6.26432718 3.2274102 9.08203125 6.03515625 C10.24279153 7.15046654 11.40424654 8.26505426 12.56640625 9.37890625 C13.12134766 9.91773438 13.67628906 10.4565625 14.24804688 11.01171875 C16.05766874 12.74932742 17.92738295 14.40260057 19.83203125 16.03515625 C23.74150062 19.41564879 27.5395984 22.91431013 31.33691406 26.41943359 C34.20433921 29.06019561 37.10995348 31.63821841 40.08203125 34.16015625 C47.76142377 40.89758586 53.82515972 47.77817462 55.11328125 58.2734375 C55.35780275 65.6396478 53.86281816 71.15227011 49.95703125 77.34765625 C46.78627527 80.4278192 44.10836974 81.35792078 39.69921875 81.57421875 C32.39149687 81.24320696 27.05275259 77.88244168 22.046875 72.68359375 C15.4169526 64.44282064 12.04978845 53.92476963 8.5625 44.07421875 C8.19224197 43.03623138 7.82198395 41.99824402 7.44050598 40.92880249 C6.66755753 38.75664443 5.89713049 36.58358759 5.12915039 34.40966797 C3.9515633 31.08220568 2.76035499 27.75982391 1.56835938 24.4375 C0.81557775 22.31670014 0.06359586 20.19561622 -0.6875 18.07421875 C-1.04366898 17.08459137 -1.39983795 16.09496399 -1.76679993 15.0753479 C-2.25312141 13.68767715 -2.25312141 13.68767715 -2.74926758 12.27197266 C-3.03618973 11.46353912 -3.32311188 10.65510559 -3.61872864 9.82217407 C-4.29211369 7.23589576 -4.4794537 5.13335009 -4.23046875 2.47265625 C-2.23046875 0.47265625 -2.23046875 0.47265625 0 0 Z " fill="#FFFFFF" transform="translate(1627.23046875,542.52734375)"/>
<path d="M0 0 C4.91894705 4.68471147 7.25115663 10.24330471 7.71875 17.01171875 C7.22777772 30.04294129 0.77234201 38.01579153 -8.375 46.5 C-10.25937198 48.17999324 -12.16218208 49.83593951 -14.07421875 51.484375 C-16.88273202 53.94480428 -19.62955107 56.46982166 -22.375 59 C-26.3709174 62.67801085 -30.38335754 66.32925656 -34.5078125 69.86328125 C-35.84517304 71.03557009 -37.14923802 72.24627125 -38.4296875 73.48046875 C-43.62424941 78.39079991 -43.62424941 78.39079991 -47.8125 79 C-50.375 78.5 -50.375 78.5 -51.375 77.5 C-51.99938238 71.03532478 -50.07885518 65.84179058 -47.90234375 59.80859375 C-47.5416127 58.78629166 -47.18088165 57.76398956 -46.80921936 56.71070862 C-46.04360507 54.54962238 -45.27252003 52.3904675 -44.49633789 50.2331543 C-43.32691139 46.97761949 -42.17879511 43.7151587 -41.03320312 40.45117188 C-28.6171147 5.40193128 -28.6171147 5.40193128 -15.91015625 -0.6796875 C-10.44859906 -2.4469094 -5.23445241 -2.32642329 0 0 Z " fill="#FFFFFF" transform="translate(1675.375,118.5)"/>
<path d="M0 0 C14.44149502 8.7142228 17.43833792 25.93219405 21.91992188 41.12524414 C22.93757964 44.56817253 23.97733719 48.00388242 25.01953125 51.43945312 C25.67710242 53.64023068 26.33339791 55.84138989 26.98828125 58.04296875 C27.29756561 59.06288406 27.60684998 60.08279938 27.92550659 61.13362122 C29.44331536 66.32962845 30.54033164 70.82148047 30.05859375 76.2421875 C29.05859375 77.2421875 29.05859375 77.2421875 26.28515625 77.54621887 C22.30281989 77.17097271 21.23437366 76.17190489 18.43359375 73.37768555 C17.5725 72.53227707 16.71140625 71.68686859 15.82421875 70.81584167 C14.9115625 69.88790298 13.99890625 68.95996429 13.05859375 68.00390625 C12.09600007 67.04281688 11.13244154 66.08269301 10.16796875 65.12348938 C8.14779283 63.1076451 6.13859294 61.08162352 4.13671875 59.04760742 C1.59340611 56.464808 -0.97333526 53.90695997 -3.54882812 51.35629559 C-5.54528497 49.37416765 -7.52923013 47.37987087 -9.50976562 45.38184547 C-10.90250847 43.98054309 -12.30464651 42.58859818 -13.70703125 41.19694519 C-21.37992758 33.35484922 -27.91138175 24.8135236 -28.25390625 13.4921875 C-28.18503583 8.31160123 -27.11026521 4.38455172 -23.94140625 0.2421875 C-17.09219026 -5.10354205 -7.3233222 -3.78567458 0 0 Z " fill="#FFFFFF" transform="translate(1549.94140625,119.7578125)"/>
<path d="M0 0 C2.28393555 0.43774414 2.28393555 0.43774414 4.28393555 2.43774414 C3.94218981 9.18951851 1.99210487 15.43319783 0.0456543 21.87524414 C-0.27638474 22.95475342 -0.59842377 24.0342627 -0.93022156 25.14648438 C-1.61044891 27.41998309 -2.29392716 29.69251139 -2.98046875 31.96411133 C-4.02432658 35.42369884 -5.05344365 38.88743565 -6.08129883 42.35180664 C-6.74642867 44.56821848 -7.41241594 46.78437324 -8.0793457 49.00024414 C-8.3836702 50.02754639 -8.68799469 51.05484863 -9.00154114 52.11328125 C-12.39139872 63.24536214 -16.54948643 72.26561844 -26.84887695 78.45727539 C-32.42054962 81.38298635 -38.59161089 80.98013117 -44.71606445 80.43774414 C-49.36341248 78.27432351 -51.4479889 75.96111736 -53.71606445 71.43774414 C-55.30368726 61.57971415 -53.2781282 53.62803582 -47.71606445 45.43774414 C-46.04901473 43.47607041 -44.33964123 41.73692293 -42.4309082 40.01196289 C-40.70050063 38.42345662 -39.26077487 36.75736832 -37.77856445 34.93774414 C-35.76579238 32.53904231 -33.69122182 30.49777896 -31.28637695 28.49633789 C-27.62790042 25.33729636 -24.2256006 21.96976207 -20.8605957 18.50415039 C-20.34664749 17.97755829 -19.83269928 17.45096619 -19.30317688 16.90841675 C-17.1638417 14.71508753 -15.02648012 12.52035939 -12.90771484 10.30712891 C-11.34086281 8.67381443 -9.75866043 7.05677732 -8.1730957 5.44165039 C-7.69902786 4.93863907 -7.22496002 4.43562775 -6.73652649 3.91737366 C-4.5215026 1.68477119 -3.14660908 0.50713439 0 0 Z " fill="#FFFFFF" transform="translate(1575.716064453125,542.562255859375)"/>
<path d="M0 0 C1 1 1 1 1.44140625 3.16796875 C0.76819675 7.48723326 -1.93382863 9.43055847 -5.0625 12.3125 C-8.64549143 15.6980361 -12.12760784 19.07537997 -15.34375 22.81640625 C-19.49328571 27.63546437 -23.94413761 32.12806861 -28.4375 36.625 C-29.24509766 37.44484375 -30.05269531 38.2646875 -30.88476562 39.109375 C-39.96416659 48.21072455 -49.21945722 56.24610847 -62.57421875 57.09765625 C-67.96940101 56.8804589 -71.72332843 55.3421419 -75.4375 51.4375 C-78.69999608 46.34800612 -78.75468255 41.96347189 -78 36 C-75.24685538 27.53040243 -70.98538419 21.09007483 -63 17 C-57.35896641 14.61448828 -51.50539642 12.86127853 -45.64648438 11.09960938 C-42.92503761 10.27894814 -40.20846944 9.44710845 -37.49414062 8.60351562 C-33.34104746 7.31278682 -29.18380729 6.0363263 -25.02331543 4.76965332 C-23.34571104 4.25795598 -21.66902398 3.74324116 -19.99328613 3.22546387 C-17.61346586 2.49278471 -15.22946649 1.77571101 -12.84375 1.0625 C-12.12680969 0.83894836 -11.40986938 0.61539673 -10.67120361 0.3850708 C-6.77116768 -0.76164173 -3.90386018 -1.3025132 0 0 Z " fill="#FFFFFF" transform="translate(1426,391)"/>
<path d="M0 0 C4.89206725 3.12259612 7.40711643 6.003058 9 11.625 C9.38048008 17.6550328 6.9707829 23.01145992 3.53125 27.85546875 C-5.91568264 38.34434249 -22.29505427 42.04335343 -35.14599609 46.53588867 C-38.45373103 47.69317881 -41.75635646 48.86423567 -45.05859375 50.03710938 C-47.17158885 50.78206213 -49.28486055 51.52623092 -51.3984375 52.26953125 C-52.37976654 52.61740189 -53.36109558 52.96527252 -54.37216187 53.32368469 C-63.47659027 56.49322096 -63.47659027 56.49322096 -68.0625 56.875 C-70 55.75 -70 55.75 -71.0625 53.875 C-70.80434416 49.0533152 -68.28733412 46.48143 -65.0625 43.1875 C-64.05422376 42.12413744 -63.04641774 41.06032884 -62.0390625 39.99609375 C-61.53536133 39.46999512 -61.03166016 38.94389648 -60.51269531 38.40185547 C-58.443728 36.2235185 -56.43992456 33.98946069 -54.4375 31.75 C-53.35082031 30.53957031 -53.35082031 30.53957031 -52.2421875 29.3046875 C-51.52289062 28.50289063 -50.80359375 27.70109375 -50.0625 26.875 C-47.81608959 24.37811874 -45.56887115 21.88204704 -43.31640625 19.390625 C-41.78839683 17.6851864 -40.27575699 15.96587474 -38.77734375 14.234375 C-28.62852562 2.60588356 -16.26404595 -6.05423737 0 0 Z " fill="#FFFFFF" transform="translate(1847.0625,291.125)"/>
<path d="M0 0 C6.13898825 4.60222973 11.02593097 10.41717726 15.98046875 16.234375 C17.18786894 17.61019447 18.39600065 18.98537305 19.60546875 20.359375 C20.12367187 20.96007812 20.641875 21.56078125 21.17578125 22.1796875 C24.03367832 25.43348373 26.98045306 28.6058887 29.91430664 31.79101562 C33.21541291 35.38159206 36.45437011 39.01830958 39.640625 42.7109375 C40.70934779 43.92610335 41.83617935 45.0900856 42.98046875 46.234375 C43.23046875 49.234375 43.23046875 49.234375 42.98046875 52.234375 C41.99046875 53.224375 41.99046875 53.224375 40.98046875 54.234375 C34.6108519 53.78419011 28.17699115 51.08792778 22.1875 49.00390625 C21.27900803 48.69039719 20.37051605 48.37688812 19.43449402 48.05387878 C17.52173887 47.39166594 15.60990978 46.72677272 13.69897461 46.05932617 C10.82175157 45.05690292 7.93949927 44.07006343 5.05664062 43.08398438 C-27.49857226 31.82923339 -27.49857226 31.82923339 -34.84375 18.9609375 C-36.71532458 14.62087419 -36.92980234 10.8496091 -36.01953125 6.234375 C-33.95862881 1.5973445 -31.19210149 -1.04848985 -26.609375 -3.0625 C-17.45475162 -5.54791811 -8.2344182 -4.66728157 0 0 Z " fill="#FFFFFF" transform="translate(1384.01953125,293.765625)"/>
<path d="M0 0 C2.15619893 0.62699174 4.31048577 1.26058483 6.46313477 1.8996582 C7.61064713 2.23914993 8.75815948 2.57864166 9.94044495 2.92842102 C12.36106514 3.64761397 14.78080373 4.36978004 17.19970703 5.09472656 C20.8840342 6.19431916 24.57464797 7.27073807 28.26586914 8.34692383 C30.62371723 9.05057535 32.98115354 9.75560844 35.33813477 10.4621582 C36.4341954 10.77803391 37.53025604 11.09390961 38.65953064 11.4193573 C49.31757741 14.67099722 56.5782568 19.9422351 62.27954102 29.57543945 C64.35024295 34.98093462 64.33492579 40.85746077 63.46704102 46.51293945 C61.36331246 50.95165749 58.61650602 52.98241715 54.21704102 55.01293945 C45.15294899 56.22148506 38.16106055 54.39360333 30.46704102 49.51293945 C21.30739274 42.16242855 13.12703421 33.42634158 4.81396484 25.1550293 C3.19598073 23.54868535 1.5735095 21.9468495 -0.05322266 20.34936523 C-2.42212878 18.02290922 -4.77770458 15.68368332 -7.13061523 13.34106445 C-7.85966568 12.62952209 -8.58871613 11.91797974 -9.33985901 11.18487549 C-10.34241982 10.17792633 -10.34241982 10.17792633 -11.36523438 9.15063477 C-12.24931725 8.27535126 -12.24931725 8.27535126 -13.15126038 7.38238525 C-14.8424444 5.09420399 -15.25095941 3.32664734 -15.53295898 0.51293945 C-12.60502231 -4.97694182 -4.7553872 -1.32799672 0 0 Z " fill="#FFFFFF" transform="translate(1791.532958984375,392.487060546875)"/>
</svg>
